<svg height="472pt" viewBox="0 -32 472.00673 472" width="472pt" xmlns="http://www.w3.org/2000/svg"><path d="m356.25 272.003906-20.238281 128h-32l8-80c-10.425781-15.667968-15.992188-34.0625-16-52.878906v-43.121094h60.238281zm0 0" fill="#80582f"/><path d="m304.011719 400.003906h32l5.0625-32h-33.863281zm0 0" fill="#704a22"/><path d="m180.25 272.003906-20.238281 128h-32l8-80c-10.425781-15.667968-15.992188-34.0625-16-52.878906v-43.121094h60.238281zm0 0" fill="#80582f"/><path d="m128.011719 400.003906h32l5.0625-32h-33.863281zm0 0" fill="#704a22"/><path d="m344.011719 64.003906h-256v128c0 44.183594 35.816406 80 80 80h16.175781c.855469 17.132813 6.320312 33.71875 15.824219 48l-8 80h32l20.207031-128h116c.84375 17.128906 6.300781 33.714844 15.792969 48l-8 80h32l20.085937-127.199218c2.605469-16.5 3.914063-33.179688 3.914063-49.882813v-78.917969c0-44.183594-35.816407-80-80-80zm0 0" fill="#a2783b"/><path d="m112.011719 168.003906c0 13.253906-10.746094 24-24 24-13.253907 0-24-10.746094-24-24s10.746093-24 24-24c13.253906 0 24 10.746094 24 24zm0 0" fill="#ffc018"/><path d="m192.011719 400.003906h32l5.0625-32h-33.863281zm0 0" fill="#704a22"/><path d="m368.011719 400.003906h32l5.0625-32h-33.863281zm0 0" fill="#704a22"/><path d="m120.011719 152.003906h-64c-3.980469 0-7.355469-2.925781-7.921875-6.863281l-7.277344-50.882813c-15.804688-3.636718-29.792969-12.78125-39.464844-25.796874-2.140625-3.203126-1.691406-7.476563 1.0625-10.167969 8.902344-7.679688 19.574219-13.015625 31.058594-15.53125l-1.378906-9.597657c-.335938-2.300781.34375-4.632812 1.867187-6.394531 1.519531-1.757812 3.730469-2.765625 6.054688-2.765625h96c2.320312 0 4.527343 1.007813 6.046875 2.757813 1.519531 1.753906 2.203125 4.082031 1.871094 6.378906l-1.375 9.597656c11.484374 2.523438 22.160156 7.867188 31.058593 15.554688 2.75 2.695312 3.191407 6.964843 1.046875 10.167969-9.667968 13.011718-23.652344 22.15625-39.449218 25.796874l-7.261719 50.882813c-.566407 3.945313-3.953125 6.871094-7.9375 6.863281zm0 0" fill="#8e662b"/><path d="m416.722656 69.722656 11.199219-11.4375c-4.753906-4.636718-9.875-8.875-15.316406-12.683594l-9.179688 13.113282c4.726563 3.300781 9.171875 6.984375 13.296875 11.007812zm0 0"/><path d="m232.011719 24.003906v16h112c15.417969-.039062 30.648437 3.394532 44.558593 10.039063l6.882813-14.457031c-16.0625-7.664063-33.644531-11.625-51.441406-11.582032zm0 0"/><path d="m432.011719 145.738281v-1.734375c-.058594-48.578125-39.421875-87.941406-88-88h-173.113281c-8.421876-6.34375-18.074219-10.851562-28.34375-13.242187l.496093-3.46875c19.042969-3.40625 32.917969-19.945313 32.960938-39.28906275h-16c0 13.25390575-10.746094 23.99999975-24 23.99999975h-96c-13.253907 0-24-10.746094-24-23.99999975h-16.0000002c.0429687 19.34374975 13.9179692 35.88281275 32.9609372 39.28906275l.496094 3.46875c-11.484375 2.515625-22.15625 7.851562-31.058594 15.53125-2.75 2.695312-3.191406 6.964843-1.046875 10.167969 9.667969 13.011718 23.652344 22.15625 39.449219 25.796874l7.261719 50.882813c.566406 3.945313 3.953125 6.871094 7.9375 6.863281h4.449219c-5.152344 8.65625-5.871094 19.25-1.941407 28.527344 3.929688 9.273438 12.042969 16.125 21.84375 18.449219 1.867188 23.734375 13.289063 45.695312 31.648438 60.855469v7.289062c0 19.402344 5.460937 38.417969 15.761719 54.863281l-7.722657 77.214844c-.226562 2.25.511719 4.488281 2.027344 6.167969 1.515625 1.675781 3.671875 2.632812 5.933594 2.632812h32c3.9375 0 7.289062-2.863281 7.902343-6.753906l15.25-96.445312c2.332032 5.984374 5.214844 11.738281 8.609376 17.191406l-7.722657 77.207031c-.226562 2.25.511719 4.488281 2.027344 6.167969 1.515625 1.675781 3.671875 2.632812 5.933594 2.632812h32c3.9375 0 7.289062-2.863281 7.902343-6.753906l19.144532-121.246094h38c1.800781 14.894532 6.820312 29.222656 14.714844 41.984375l-7.722657 77.214844c-.226562 2.25.511719 4.488281 2.027344 6.167969 1.515625 1.675781 3.671875 2.632812 5.933594 2.632812h32c3.9375 0 7.289062-2.863281 7.902343-6.753906l15.25-96.445312c2.332032 5.984374 5.214844 11.738281 8.609376 17.191406l-7.722657 77.207031c-.226562 2.25.511719 4.488281 2.027344 6.167969 1.515625 1.675781 3.671875 2.632812 5.933594 2.632812h32c3.9375 0 7.289062-2.863281 7.902343-6.753906l20.089844-127.199219c2.664063-16.90625 4-33.996093 4-51.113281v-60.382812c11.800782 4.46875 20.527344 14.617187 23.171875 26.953124 2.648438 12.335938-1.148437 25.171876-10.078125 34.085938l-2.75 2.746094 11.3125 11.328125 2.75-2.753907c13.523438-13.511718 18.753906-33.238281 13.710938-51.675781-5.046875-18.4375-19.59375-32.753906-38.109375-37.5zm-376.167969-59.453125c-.511719-3.546875-3.3125-6.320312-6.863281-6.792968-10.988281-1.496094-21.214844-6.449219-29.199219-14.144532 7.359375-4.269531 15.472656-7.09375 23.894531-8.320312 4.339844-.652344 7.347657-4.675782 6.734375-9.023438l-1.132812-8h77.550781l-1.214844 8c-.625 4.339844 2.363281 8.371094 6.695313 9.039063 8.421875 1.226562 16.53125 4.050781 23.894531 8.320312-7.984375 7.695313-18.210937 12.648438-29.199219 14.144531-3.550781.472657-6.355468 3.246094-6.863281 6.792969l-7.066406 49.703125h-50.125zm16.167969 81.71875c0-8.835937 7.164062-16 16-16 8.835937 0 16 7.164063 16 16 0 8.835938-7.164063 16-16 16-8.835938 0-16-7.164062-16-16zm64.839843 224 1.601563-16h17.253906l-2.527343 16zm21.382813-32h-18.183594l3.960938-39.199218c.183593-1.839844-.273438-3.6875-1.296875-5.226563-8.929688-13.445313-13.964844-29.101563-14.542969-45.230469 12.324219 6.332032 25.980469 9.644532 39.839844 9.65625h2.871093zm42.617187 32 1.601563-16h17.246094l-2.519531 16zm112 0 1.601563-16h17.253906l-2.527343 16zm21.382813-32h-18.183594l3.960938-39.199218c.179687-1.84375-.277344-3.691407-1.296875-5.234376-7.078125-10.714843-11.703125-22.859374-13.550782-35.566406h41.71875zm42.617187 32 1.601563-16h17.246094l-2.519531 16zm39.160157-232v62.910156c-.003907 16.277344-1.277344 32.53125-3.816407 48.609376l-13.96875 88.480468h-18.175781l3.960938-39.199218c.1875-1.847657-.273438-3.699219-1.304688-5.242188-9.578125-14.308594-14.695312-31.140625-14.695312-48.359375v-35.199219h-16v32h-98.398438l2.328125-14.753906-15.808594-2.496094-17.90625 113.25h-18.175781l3.960938-39.199218c.1875-1.847657-.273438-3.699219-1.304688-5.242188-9.578125-14.308594-14.695312-31.140625-14.695312-48.359375v-35.199219h-16v32h-8c-37.121094-.046875-68.136719-28.285156-71.65625-65.242187 9.621093-2.5 17.507812-9.382813 21.285156-18.578125 3.777344-9.199219 3.007813-19.636719-2.078125-28.179688h4.449219c3.980469 0 7.355469-2.925781 7.917969-6.863281l7.265624-50.882813c14.289063-3.324218 27.148438-11.121093 36.703126-22.253906h172.113281c39.746093.042969 71.957031 32.253906 72 72zm0 0"/><path d="m64.011719 64.003906h16v16h-16zm0 0"/><path d="m96.011719 64.003906h16v16h-16zm0 0"/></svg>